<?xml version="1.0" encoding="utf-8"?>
<!-- Uploaded to: SVG Repo, www.svgrepo.com, Generator: SVG Repo Mixer Tools -->
<svg fill="#000000" height="800px" width="800px" version="1.1" id="Layer_1" xmlns="http://www.w3.org/2000/svg" xmlns:xlink="http://www.w3.org/1999/xlink" 
	 viewBox="0 0 256 256" xml:space="preserve">
<g id="_x31_">
</g>
<path d="M205.3,209.5c-4.9-17.7-28.3-32-48.9-13l-18.7-69.2L179.9,9.5c-1.6-0.4-3.7-0.2-4.7,2.6l-47.7,86.6L80.1,12.1
	c-1-2.9-3.1-3.1-4.7-2.6l42.2,117.7l-18.7,69.2c-20.4-18.7-44-4.7-48.9,13c-4.3,15.7,3.7,31.2,21.4,35.8c14.1,3.9,30.6-4.7,34.8-21
	l18.5-68.2h5.9l18.5,68.4c4.5,16.3,20.8,24.6,34.8,21C201.7,240.7,209.6,225.2,205.3,209.5z M91.5,220.7c-2,7.7-10,12.2-17.7,10.2
	c-7.7-2-12.2-10-10.2-17.7s10-12.2,17.7-10.2C89.1,205,93.7,213,91.5,220.7z M127.5,134.3c-3.3,0-5.9-2.6-5.9-5.9
	c0-3.3,2.6-5.9,5.9-5.9c3.3,0,5.9,2.6,5.9,5.9C133.5,131.7,130.8,134.3,127.5,134.3z M181.5,230.9c-7.7,2-15.7-2.4-17.7-10.2
	c-2-7.7,2.4-15.7,10.2-17.7c7.7-2,15.7,2.4,17.7,10.2C193.7,220.9,189.3,228.8,181.5,230.9z"/>
</svg>